<svg xmlns="http://www.w3.org/2000/svg" viewBox="0 0 448 512" fill="#ffffff">
  <path d="M224,202.66A53.34,53.34,0,1,0,277.34,256,53.38,53.38,0,0,0,224,202.66Zm124.71-41a54.17,54.17,0,0,0-30.5-30.5C298.55,120,224,120,224,120s-74.55,0-94.21,11.21a54.17,54.17,0,0,0-30.5,30.5C88,142.45,88,192,88,192s0,49.55,11.21,69.21a54.17,54.17,0,0,0,30.5,30.5C149.45,312,224,312,224,312s74.55,0,94.21-11.21a54.17,54.17,0,0,0,30.5-30.5C360,241.55,360,192,360,192S360,142.45,348.71,161.66ZM224,292a68,68,0,1,1,68-68A68,68,0,0,1,224,292Zm76-123.33a15.33,15.33,0,1,1,15.33-15.33A15.33,15.33,0,0,1,300,168.67ZM224,8C100.3,8,8,100.3,8,224S100.3,440,224,440,440,347.7,440,224,347.7,8,224,8Zm0,402c-98.5,0-178.5-80-178.5-178.5S125.5,53,224,53s178.5,80,178.5,178.5S322.5,410,224,410Z"/>
</svg>
